<svg width="32" height="22" viewBox="0 0 32 22" fill="none" xmlns="http://www.w3.org/2000/svg">
<path d="M29.0641 6.78C29.0641 3.03486 26.0544 0 22.3402 0C18.626 0 15.6162 3.03486 15.6162 6.78C15.6162 10.5251 18.626 13.56 22.3402 13.56C26.0544 13.56 29.0641 10.5251 29.0641 6.78ZM22.3402 10.9771C20.0348 10.9771 18.1777 9.09166 18.1777 6.78C18.1777 6.26343 18.2802 5.74686 18.4595 5.25611C18.5235 5.08823 18.7028 5.01074 18.8693 5.07531C18.8949 5.07531 18.9206 5.10114 18.9334 5.11406C20.4575 6.19886 22.2761 6.78 24.146 6.78C24.8377 6.78 25.5293 6.70251 26.1953 6.54754C26.3233 6.52171 26.4514 6.5992 26.4898 6.72834C26.4898 6.74126 26.4898 6.76709 26.4898 6.78C26.4898 9.09166 24.6327 10.9771 22.3274 10.9771H22.3402Z" fill="#9A41FC"/>
<path d="M21.5838 15.3928C21.6093 15.2403 21.7493 15.1387 21.8892 15.1387H22.8182C22.9709 15.1387 23.0981 15.2403 23.1236 15.3928L24.3579 20.9334C24.3833 21.0858 24.5233 21.1875 24.6633 21.1875H30.6313C31.153 21.1875 31.5856 20.7554 31.5856 20.2344C31.5856 20.1201 31.5602 20.0057 31.522 19.8913C29.6005 14.8337 23.938 12.2795 18.8607 14.1983C16.2266 15.1895 14.1525 17.2609 13.1599 19.8913C12.9691 20.3869 13.2108 20.9333 13.7071 21.124C13.8216 21.1621 13.9362 21.1875 14.0507 21.1875H20.0187C20.1714 21.1875 20.2986 21.0858 20.3241 20.9334L21.5584 15.3928H21.5838Z" fill="#9A41FC"/>
<path d="M2 6.16364H11.2455" stroke="#9A41FC" stroke-width="3" stroke-linecap="round"/>
<line x1="6.71387" y1="1.5" x2="6.71387" y2="10.8273" stroke="#9A41FC" stroke-width="3" stroke-linecap="round"/>
</svg>
