<svg width="150" height="157" viewBox="0 0 150 157" fill="none" xmlns="http://www.w3.org/2000/svg">
<rect width="150" height="157" rx="15" fill="#9A41FC" fill-opacity="0.1"/>
<path d="M76.6831 68.4912C76.3628 68.1757 75.9397 68 75.5 68C75.0603 68 74.6372 68.1757 74.3169 68.4912L66.2734 76.3876C66.1469 76.5117 66.059 76.6727 66.021 76.8498C65.983 77.0269 65.9968 77.2119 66.0605 77.3807C66.1242 77.5495 66.2349 77.6943 66.3782 77.7964C66.5215 77.8984 66.6908 77.9529 66.8641 77.9528H67.7277C67.9567 77.9528 68.1764 78.0481 68.3383 78.2178C68.5003 78.3874 68.5913 78.6175 68.5913 78.8575V85.1906C68.5913 85.6705 68.7732 86.1307 69.0971 86.47C69.421 86.8094 69.8604 87 70.3184 87H80.6816C81.1396 87 81.579 86.8094 81.9029 86.47C82.2268 86.1307 82.4087 85.6705 82.4087 85.1906V78.8575C82.4087 78.6175 82.4997 78.3874 82.6617 78.2178C82.8236 78.0481 83.0433 77.9528 83.2723 77.9528H84.1359C84.3092 77.9529 84.4785 77.8984 84.6218 77.7964C84.7651 77.6943 84.8758 77.5495 84.9395 77.3807C85.0032 77.2119 85.017 77.0269 84.979 76.8498C84.941 76.6727 84.8531 76.5117 84.7266 76.3876L76.6831 68.4912Z" fill="#9A41FC" fill-opacity="0.2"/>
<path d="M61.2 71C61.86 71 62.4 70.46 62.4 69.8V68C62.4 67.664 62.664 67.4 63 67.4H64.8C65.46 67.4 66 66.86 66 66.2C66 65.54 65.46 65 64.8 65H62.4C61.08 65 60 66.08 60 67.4V69.8C60 70.46 60.54 71 61.2 71Z" fill="#9A41FC" fill-opacity="0.2"/>
<path d="M62.4 93H64.8C65.46 93 66 92.37 66 91.6C66 90.83 65.46 90.2 64.8 90.2H63C62.664 90.2 62.4 89.892 62.4 89.5V87.4C62.4 86.63 61.86 86 61.2 86C60.54 86 60 86.63 60 87.4V90.2C60 91.74 61.08 93 62.4 93Z" fill="#9A41FC" fill-opacity="0.2"/>
<path d="M88.6 65H86.2C85.54 65 85 65.54 85 66.2C85 66.86 85.54 67.4 86.2 67.4H88C88.336 67.4 88.6 67.664 88.6 68V69.8C88.6 70.46 89.14 71 89.8 71C90.46 71 91 70.46 91 69.8V67.4C91 66.08 89.92 65 88.6 65Z" fill="#9A41FC" fill-opacity="0.2"/>
<path d="M89.8 86C89.14 86 88.6 86.63 88.6 87.4V89.5C88.6 89.892 88.336 90.2 88 90.2H86.2C85.54 90.2 85 90.83 85 91.6C85 92.37 85.54 93 86.2 93H88.6C89.92 93 91 91.74 91 90.2V87.4C91 86.63 90.46 86 89.8 86Z" fill="#9A41FC" fill-opacity="0.2"/>
</svg>
