<svg width="8" height="23" viewBox="0 0 8 23" fill="none" xmlns="http://www.w3.org/2000/svg">
<g style="mix-blend-mode:saturation">
<path d="M5.99948 2.50511C5.99948 3.60934 5.10433 4.50449 4.00011 4.50449C2.89588 4.50449 2.00073 3.60934 2.00073 2.50511C2.00073 1.40089 2.89588 0.505737 4.00011 0.505737C5.10433 0.505737 5.99948 1.40089 5.99948 2.50511Z" fill="#4181FC" stroke="black"/>
<path d="M6.25025 14.0021C6.15191 14.0019 6.05449 14.021 5.96353 14.0583C5.8722 14.0959 5.78917 14.151 5.71921 14.2207C5.64925 14.2904 5.59375 14.3732 5.55587 14.4644C5.518 14.5556 5.4985 14.6533 5.4985 14.7521V22.0002C5.4985 22.1328 5.44585 22.2599 5.35213 22.3536C5.25841 22.4473 5.13129 22.5 4.99875 22.5H2.99925C2.86671 22.5 2.73959 22.4473 2.64587 22.3536C2.55215 22.2599 2.4995 22.1328 2.4995 22.0002V14.7521C2.4995 14.5532 2.42049 14.3624 2.27985 14.2218C2.13921 14.0811 1.94846 14.0021 1.74956 14.0021H0.999751C0.867209 14.0021 0.740095 13.9495 0.646374 13.8557C0.552652 13.762 0.5 13.6349 0.5 13.5024V8.50362C0.5 8.10593 0.657983 7.72453 0.939195 7.44331C1.22041 7.1621 1.60181 7.00412 1.9995 7.00412H5.9985V6.50412M6.25025 14.0021C6.25064 14.0021 6.25104 14.0021 6.25144 14.0021L6.24944 14.5021V14.0021H6.25025ZM6.25025 14.0021H7.00025C7.13279 14.0021 7.25991 13.9495 7.35363 13.8557C7.44735 13.762 7.5 13.6349 7.5 13.5024V8.50362C7.5 8.30658 7.46116 8.11147 7.38571 7.92944C7.31026 7.74741 7.19968 7.58204 7.06028 7.44278C6.92088 7.30352 6.7554 7.1931 6.57329 7.11783C6.39119 7.04256 6.19604 7.00392 5.999 7.00412L5.9985 6.50412M5.9985 6.50412C6.26125 6.50386 6.52147 6.55538 6.76429 6.65575C7.00711 6.75612 7.22777 6.90336 7.41365 7.08905C7.59954 7.27475 7.747 7.49526 7.84761 7.73798C7.94822 7.9807 8 8.24087 8 8.50362V13.5024C8 13.7675 7.89467 14.0218 7.70718 14.2093C7.51969 14.3968 7.2654 14.5021 7.00025 14.5021H6.24944C6.21653 14.502 6.18392 14.5084 6.15348 14.5209C6.12304 14.5334 6.09537 14.5517 6.07206 14.575C6.04874 14.5982 6.03024 14.6258 6.01762 14.6562C6.005 14.6866 5.9985 14.7192 5.9985 14.7521V22.0002C5.9985 22.2654 5.89317 22.5197 5.70568 22.7072C5.51819 22.8947 5.2639 23 4.99875 23H2.99925C2.7341 23 2.47981 22.8947 2.29232 22.7072C2.10483 22.5197 1.9995 22.2654 1.9995 22.0002V14.7521C1.9995 14.6858 1.97317 14.6222 1.9263 14.5753C1.87942 14.5285 1.81585 14.5021 1.74956 14.5021H0.999751C0.734601 14.5021 0.48031 14.3968 0.29282 14.2093C0.105331 14.0218 0 13.7675 0 13.5024V8.50362C0 7.97332 0.210662 7.46474 0.585641 7.08976C0.96062 6.71478 1.4692 6.50412 1.9995 6.50412H5.9985Z" fill="#4181FC" stroke="black"/>
</g>
</svg>
