<svg width="22" height="19" viewBox="0 0 22 19" fill="none" xmlns="http://www.w3.org/2000/svg">
<g opacity="0.82">
<path d="M10.292 12.7457C10.3849 12.8263 10.4952 12.8902 10.6167 12.9339C10.7382 12.9775 10.8685 13 11 13C11.1315 13 11.2618 12.9775 11.3833 12.9339C11.5048 12.8902 11.6151 12.8263 11.708 12.7457L17.7082 7.53727C17.8477 7.41609 17.9427 7.26184 17.981 7.09399C18.0193 6.92614 17.9994 6.75222 17.9236 6.59419C17.8479 6.43616 17.7197 6.30111 17.5554 6.20608C17.391 6.11106 17.1978 6.06032 17.0002 6.06029H13.5001C13.4342 6.06029 13.3691 6.04903 13.3083 6.02717C13.2475 6.00531 13.1923 5.97327 13.1458 5.93289C13.0993 5.89251 13.0626 5.84458 13.0375 5.79187C13.0125 5.73915 12.9998 5.68267 13.0001 5.62568V1.73151C13.0001 1.27229 12.7893 0.831868 12.4143 0.507147C12.0392 0.182425 11.5304 0 11 0C10.4696 0 9.96083 0.182425 9.58574 0.507147C9.21066 0.831868 8.99994 1.27229 8.99994 1.73151V5.62568C8.99994 5.74048 8.94726 5.85059 8.85349 5.93177C8.75972 6.01295 8.63254 6.05856 8.49992 6.05856H4.99982C4.80218 6.05859 4.60899 6.10933 4.44464 6.20435C4.28028 6.29938 4.15214 6.43443 4.07638 6.59246C4.00063 6.75049 3.98066 6.92441 4.019 7.09226C4.05734 7.26011 4.15227 7.41436 4.2918 7.53553L10.292 12.7457Z" fill="white"/>
<path d="M2.75 19H19.25C19.9793 19 20.6788 18.723 21.1945 18.2298C21.7103 17.7367 22 17.0678 22 16.3704V13.7548C22 13.2899 21.8068 12.844 21.463 12.5152C21.1192 12.1865 20.6529 12.0018 20.1667 12.0018C19.6804 12.0018 19.2141 12.1865 18.8703 12.5152C18.5265 12.844 18.3333 13.2899 18.3333 13.7548V15.0538C18.3333 15.1701 18.285 15.2816 18.1991 15.3637C18.1131 15.4459 17.9966 15.4921 17.875 15.4921H4.125C4.00344 15.4921 3.88686 15.4459 3.80091 15.3637C3.71496 15.2816 3.66667 15.1701 3.66667 15.0538V13.7531C3.66667 13.2881 3.47351 12.8422 3.1297 12.5135C2.78588 12.1847 2.31956 12 1.83333 12C1.3471 12 0.880789 12.1847 0.536972 12.5135C0.193155 12.8422 6.11168e-07 13.2881 6.11168e-07 13.7531V16.3686C-0.000240248 16.7141 0.0707128 17.0563 0.208805 17.3755C0.346898 17.6947 0.549424 17.9848 0.804809 18.2292C1.06019 18.4736 1.36343 18.6674 1.6972 18.7997C2.03096 18.9319 2.38871 19 2.75 19Z" fill="white"/>
</g>
</svg>
