<svg width="35" height="35" viewBox="0 0 35 35" fill="none" xmlns="http://www.w3.org/2000/svg">
<rect width="35" height="35" rx="10" transform="matrix(1 0 0 -1 0 35)" fill="#F5F5F5"/>
<path d="M17.5002 7C17.1837 7 16.8801 7.12575 16.6563 7.34958C16.4324 7.57342 16.3067 7.877 16.3067 8.19355V12.0726C16.3067 12.1517 16.2752 12.2276 16.2193 12.2836C16.1633 12.3395 16.0874 12.371 16.0083 12.371H14.5164C14.3985 12.3712 14.2834 12.4064 14.1855 12.472C14.0876 12.5376 14.0113 12.6307 13.9663 12.7395C13.9212 12.8484 13.9094 12.9682 13.9323 13.0838C13.9552 13.1994 14.0118 13.3056 14.095 13.3891L17.0789 16.3729C17.1908 16.4848 17.3426 16.5477 17.5008 16.5477C17.6591 16.5477 17.8108 16.4848 17.9227 16.3729L20.9066 13.3891C20.9899 13.3055 21.0465 13.1992 21.0694 13.0835C21.0923 12.9678 21.0804 12.8479 21.0352 12.739C20.99 12.6301 20.9135 12.537 20.8154 12.4715C20.7173 12.406 20.602 12.371 20.4841 12.371H18.9922C18.913 12.371 18.8371 12.3395 18.7812 12.2836C18.7252 12.2276 18.6938 12.1517 18.6938 12.0726V8.19355C18.6938 8.03681 18.6629 7.8816 18.6029 7.7368C18.5429 7.59199 18.455 7.46041 18.3442 7.34958C18.2334 7.23875 18.1018 7.15083 17.957 7.09085C17.8122 7.03087 17.657 7 17.5002 7Z" fill="#C1C1C1"/>
<path d="M12.7262 11.7742C13.0428 11.7742 13.3464 11.6484 13.5702 11.4246C13.794 11.2008 13.9198 10.8972 13.9198 10.5806C13.9198 10.2641 13.794 9.96052 13.5702 9.73668C13.3464 9.51285 13.0428 9.3871 12.7262 9.3871H10.9359C10.3028 9.3871 9.69566 9.6386 9.24799 10.0863C8.80033 10.5339 8.54883 11.1411 8.54883 11.7742V19.4332C8.54883 20.0663 8.80033 20.6735 9.24799 21.1211C9.69566 21.5688 10.3028 21.8203 10.9359 21.8203H16.0085C16.0876 21.8203 16.1635 21.8517 16.2195 21.9077C16.2755 21.9636 16.3069 22.0395 16.3069 22.1187V22.8145C16.3069 22.8937 16.2755 22.9696 16.2195 23.0255C16.1635 23.0815 16.0876 23.1129 16.0085 23.1129H12.7262C12.4097 23.1129 12.1061 23.2387 11.8823 23.4625C11.6584 23.6863 11.5327 23.9899 11.5327 24.3065C11.5327 24.623 11.6584 24.9266 11.8823 25.1504C12.1061 25.3743 12.4097 25.5 12.7262 25.5H22.2746C22.5912 25.5 22.8948 25.3743 23.1186 25.1504C23.3424 24.9266 23.4682 24.623 23.4682 24.3065C23.4682 23.9899 23.3424 23.6863 23.1186 23.4625C22.8948 23.2387 22.5912 23.1129 22.2746 23.1129H18.9924C18.9132 23.1129 18.8373 23.0815 18.7814 23.0255C18.7254 22.9696 18.694 22.8937 18.694 22.8145V22.1187C18.694 22.0395 18.7254 21.9636 18.7814 21.9077C18.8373 21.8517 18.9132 21.8203 18.9924 21.8203H24.065C24.6981 21.8203 25.3052 21.5688 25.7529 21.1211C26.2006 20.6735 26.4521 20.0663 26.4521 19.4332V11.7742C26.4521 11.1411 26.2006 10.5339 25.7529 10.0863C25.3052 9.6386 24.6981 9.3871 24.065 9.3871H22.2746C21.9581 9.3871 21.6545 9.51285 21.4307 9.73668C21.2068 9.96052 21.0811 10.2641 21.0811 10.5806C21.0811 10.8972 21.2068 11.2008 21.4307 11.4246C21.6545 11.6484 21.9581 11.7742 22.2746 11.7742H23.7666C23.8457 11.7742 23.9216 11.8056 23.9776 11.8616C24.0335 11.9176 24.065 11.9934 24.065 12.0726V18.0403C24.065 18.1195 24.0335 18.1954 23.9776 18.2513C23.9216 18.3073 23.8457 18.3387 23.7666 18.3387H11.2343C11.1552 18.3387 11.0793 18.3073 11.0233 18.2513C10.9674 18.1954 10.9359 18.1195 10.9359 18.0403V12.0726C10.9359 11.9934 10.9674 11.9176 11.0233 11.8616C11.0793 11.8056 11.1552 11.7742 11.2343 11.7742H12.7262Z" fill="#C1C1C1"/>
</svg>
