<svg width="30" height="30" viewBox="0 0 30 30" fill="none" xmlns="http://www.w3.org/2000/svg">
<path d="M26.75 8.75C26.7499 8.41851 26.6182 8.10062 26.3838 7.86625L18.8838 0.36625C18.6494 0.131813 18.3315 7.07968e-05 18 0L5.5 0C4.83696 0 4.20107 0.263392 3.73223 0.732233C3.26339 1.20107 3 1.83696 3 2.5V27.5C3 28.163 3.26339 28.7989 3.73223 29.2678C4.20107 29.7366 4.83696 30 5.5 30H24.25C24.913 30 25.5489 29.7366 26.0178 29.2678C26.4866 28.7989 26.75 28.163 26.75 27.5V8.75ZM6.125 27.5C5.95924 27.5 5.80027 27.4342 5.68306 27.3169C5.56585 27.1997 5.5 27.0408 5.5 26.875V3.125C5.5 2.95924 5.56585 2.80027 5.68306 2.68306C5.80027 2.56585 5.95924 2.5 6.125 2.5H16.75C16.9158 2.5 17.0747 2.56585 17.1919 2.68306C17.3092 2.80027 17.375 2.95924 17.375 3.125V6.875C17.375 7.53804 17.6384 8.17393 18.1072 8.64277C18.5761 9.11161 19.212 9.375 19.875 9.375H23.625C23.7908 9.375 23.9497 9.44085 24.0669 9.55806C24.1842 9.67527 24.25 9.83424 24.25 10V26.875C24.25 27.0408 24.1842 27.1997 24.0669 27.3169C23.9497 27.4342 23.7908 27.5 23.625 27.5H6.125Z" fill="#9A41FC"/>
</svg>
