<svg width="19" height="19" viewBox="0 0 19 19" fill="none" xmlns="http://www.w3.org/2000/svg">
<g clip-path="url(#clip0_82_403)">
<path d="M9.50033 0C7.8212 0.00188584 6.21139 0.669751 5.02407 1.85707C3.83674 3.04439 3.16888 4.65421 3.16699 6.33333C3.16699 9.11208 7.12533 15.8531 8.82583 18.6232C8.8967 18.7384 8.99591 18.8335 9.11398 18.8995C9.23206 18.9654 9.36507 19 9.50033 19C9.63579 19.0006 9.76911 18.9662 9.88731 18.9C10.0055 18.8338 10.1046 18.7382 10.1748 18.6224C11.8753 15.8539 15.8337 9.11525 15.8337 6.33333C15.8318 4.65421 15.1639 3.04439 13.9766 1.85707C12.7893 0.669751 11.1795 0.00188584 9.50033 0V0ZM9.50033 9.10417C8.95231 9.10417 8.41659 8.94166 7.96093 8.6372C7.50527 8.33273 7.15013 7.89999 6.94041 7.39368C6.73069 6.88738 6.67582 6.33026 6.78273 5.79277C6.88965 5.25528 7.15354 4.76157 7.54105 4.37406C7.92856 3.98655 8.42227 3.72265 8.95976 3.61574C9.49725 3.50883 10.0544 3.5637 10.5607 3.77342C11.067 3.98313 11.4997 4.33828 11.8042 4.79394C12.1087 5.2496 12.2712 5.78531 12.2712 6.33333C12.2712 7.0682 11.9792 7.77298 11.4596 8.29261C10.94 8.81224 10.2352 9.10417 9.50033 9.10417Z" fill="#9A41FC"/>
</g>
<defs>
<clipPath id="clip0_82_403">
<rect width="19" height="19" fill="white"/>
</clipPath>
</defs>
</svg>
